<?xml version="1.0" encoding="UTF-8"?><svg id="Layer_1" xmlns="http://www.w3.org/2000/svg" xmlns:xlink="http://www.w3.org/1999/xlink" viewBox="0 0 207 36"><defs><style>.cls-1,.cls-2{fill:none;}.cls-3{fill:#f92830;}.cls-4{fill:#2b164e;}.cls-2{clip-path:url(#clippath);}</style><clipPath id="clippath"><rect class="cls-1" width="206.81" height="36"/></clipPath></defs><g class="cls-2"><path class="cls-4" d="m31.24,5.57c-.65.16-1.39.38-2.2.67-2.32.75-4.47,1.29-7.61,1.88-.04,1.96-.08,4.47-.12,5.33h6.44c3.02,0,4.51-.08,6.2-.27v6.43c-1.61-.16-2.55-.2-6.08-.2h-6.99c-.47,3.61-1.22,6-2.63,8.31-1.45,2.27-3.77,4.55-6.52,6.27-1.14.75-1.92,1.18-3.81,2-1.49-2.63-2.51-3.92-4.87-5.88,4.75-1.73,7.18-3.25,8.87-5.61,1.06-1.41,1.57-2.78,1.92-5.1h-7.73c-3.57,0-4.47.04-6.12.2v-6.43c1.65.24,2.59.27,6.24.27h8.24c.08-1.18.08-1.92.08-3.29v-1.1c-3.73.39-4.04.39-10.36.67-.39-2.2-.86-3.61-2-5.96,1.34.08,2.04.08,2.63.08,5.22,0,12.72-.9,17.19-2.04C24.02,1.29,25.47.74,26.97,0l4.28,5.57h0Z"/><path class="cls-4" d="m67.96,31.69c-1.71-.92-3.06-2.22-4.04-3.92-.98-1.7-1.47-3.69-1.47-5.96s.5-4.23,1.49-5.94c.99-1.71,2.35-3.02,4.08-3.94,1.73-.92,3.66-1.37,5.81-1.37s4.08.46,5.81,1.37c1.73.92,3.09,2.23,4.08,3.94.99,1.71,1.49,3.69,1.49,5.94s-.5,4.23-1.51,5.94c-1.01,1.71-2.38,3.03-4.12,3.94-1.74.92-3.68,1.37-5.83,1.37s-4.07-.46-5.79-1.37h0Zm9.07-5.84c.9-.94,1.35-2.29,1.35-4.04s-.44-3.1-1.32-4.04c-.88-.94-1.96-1.41-3.24-1.41s-2.39.47-3.26,1.39c-.86.93-1.3,2.28-1.3,4.06s.43,3.1,1.28,4.04c.85.94,1.92,1.41,3.2,1.41s2.37-.47,3.28-1.41h0Z"/><path class="cls-4" d="m119.75,5.57c-.65.16-1.39.38-2.2.67-2.32.75-4.47,1.29-7.61,1.88-.04,1.96-.08,4.47-.12,5.33h6.44c3.02,0,4.51-.08,6.2-.27v6.43c-1.61-.16-2.55-.2-6.08-.2h-6.99c-.47,3.61-1.22,6-2.63,8.31-1.45,2.27-3.77,4.55-6.52,6.27-1.14.75-1.92,1.18-3.81,2-1.49-2.63-2.51-3.92-4.87-5.88,4.75-1.73,7.18-3.25,8.87-5.61,1.06-1.41,1.57-2.78,1.92-5.1h-7.73c-3.57,0-4.47.04-6.12.2v-6.43c1.65.24,2.59.27,6.24.27h8.24c.08-1.18.08-1.92.08-3.29v-1.1c-3.73.39-4.04.39-10.36.67-.39-2.2-.86-3.61-2-5.96,1.34.08,2.04.08,2.63.08,5.22,0,12.72-.9,17.19-2.04,2-.51,3.45-1.06,4.94-1.8l4.28,5.57h0Z"/><path class="cls-4" d="m147.86,23.41h-15.19c.1,1.36.54,2.4,1.32,3.12.77.72,1.72,1.08,2.85,1.08,1.68,0,2.84-.71,3.49-2.12h7.14c-.37,1.44-1.03,2.73-1.98,3.88-.96,1.15-2.15,2.05-3.59,2.71-1.44.65-3.05.98-4.83.98-2.15,0-4.06-.46-5.73-1.37-1.67-.92-2.98-2.22-3.92-3.92-.94-1.7-1.41-3.69-1.41-5.96s.46-4.26,1.39-5.96c.93-1.7,2.23-3.01,3.91-3.92,1.67-.92,3.6-1.37,5.77-1.37s4,.45,5.65,1.33c1.65.89,2.94,2.16,3.87,3.8.93,1.65,1.39,3.57,1.39,5.76,0,.63-.04,1.28-.12,1.96h0Zm-6.75-3.73c0-1.15-.39-2.06-1.18-2.75-.79-.68-1.77-1.02-2.95-1.02s-2.07.33-2.85.98c-.77.65-1.25,1.58-1.43,2.78h8.4Z"/><path class="cls-4" d="m155.31,32.08c-1.49-.65-2.67-1.55-3.53-2.69-.87-1.14-1.35-2.41-1.45-3.82h6.63c.08.76.43,1.37,1.06,1.84.63.47,1.4.71,2.32.71.84,0,1.49-.16,1.94-.49.46-.33.69-.75.69-1.27,0-.63-.33-1.09-.98-1.39-.66-.3-1.71-.63-3.18-1-1.57-.37-2.88-.75-3.93-1.16-1.05-.41-1.95-1.04-2.71-1.92-.76-.88-1.14-2.06-1.14-3.55,0-1.25.35-2.4,1.04-3.43.69-1.03,1.71-1.85,3.06-2.45,1.35-.6,2.95-.9,4.81-.9,2.75,0,4.91.68,6.5,2.04,1.58,1.36,2.49,3.16,2.73,5.41h-6.2c-.11-.76-.44-1.36-1-1.8-.56-.44-1.3-.67-2.22-.67-.78,0-1.39.15-1.81.45-.42.3-.63.71-.63,1.24,0,.63.34,1.1,1,1.41.67.31,1.71.63,3.12.94,1.62.42,2.94.83,3.96,1.24,1.02.41,1.92,1.06,2.69,1.96.77.9,1.17,2.11,1.2,3.63,0,1.28-.36,2.43-1.08,3.43-.72,1.01-1.75,1.8-3.1,2.37-1.35.57-2.91.86-4.69.86-1.91,0-3.61-.33-5.1-.98h0Z"/><path class="cls-4" d="m200.92,9.37c3.1,0,4.08-.04,5.89-.31v6.9c-1.92-.16-2.87-.2-5.77-.2h-6.95c-.39,5.14-1.06,7.73-2.75,10.71-1.53,2.67-3.65,4.98-6.28,6.86-1.14.82-2,1.37-4,2.51-1.45-2.55-2.59-3.84-5.18-6,4.59-1.92,7.46-4.2,9.26-7.25.9-1.57,1.45-3.14,1.65-4.94.05-.39.12-1.02.2-1.88h-8.4c-2.83,0-3.73.04-5.69.2v-6.9c1.76.27,2.55.31,5.81.31h8.64c0-.37.01-.89.04-1.57v-2.98c0-1.57-.08-3.02-.24-4.16h7.54c-.16,1.14-.16,1.25-.24,4.27-.03.99-.04,2.01-.04,3.06,0,.51-.04.98-.04,1.37h6.56Z"/><path class="cls-3" d="m47.97,33.06c6.22,0,11.26-5.04,11.26-11.25s-5.04-11.25-11.26-11.25-11.26,5.04-11.26,11.25,5.04,11.25,11.26,11.25Z"/></g></svg>