<svg width="207" height="36" viewBox="0 0 207 36" fill="none" xmlns="http://www.w3.org/2000/svg">
<g clip-path="url(#clip0_481_5654)">
<path d="M31.2424 5.56806C30.5885 5.72546 29.8558 5.94744 29.0444 6.23402C26.7283 6.98017 24.5704 7.52809 21.4294 8.1161C21.3893 10.0761 21.3514 12.5863 21.3113 13.4505H27.7492C30.7721 13.4505 32.2634 13.3726 33.9509 13.1765V19.609C32.3414 19.4531 31.4007 19.413 27.8674 19.413H20.881C20.4107 23.0213 19.6639 25.4134 18.2506 27.7276C16.7971 30.0016 14.4832 32.2757 11.7346 34.0019C10.5954 34.748 9.81077 35.1779 7.92708 36.002C6.43574 33.3738 5.41476 32.0797 3.06071 30.1197C7.80893 28.3935 10.2432 26.8656 11.9307 24.5113C12.9896 23.0992 13.5001 21.7272 13.8546 19.413H6.12365C2.55245 19.413 1.64962 19.4531 0 19.609V13.1765C1.64739 13.4126 2.59035 13.4505 6.23957 13.4505H14.4832C14.5612 12.2745 14.5612 11.5283 14.5612 10.1563V9.05825C10.8317 9.45026 10.5197 9.45026 4.19984 9.72422C3.8075 7.52809 3.3349 6.11598 2.198 3.76394C3.5333 3.84189 4.23996 3.84189 4.82847 3.84189C10.0493 3.84189 17.5461 2.93983 22.0202 1.80168C24.022 1.29163 25.4732 0.743707 26.9668 -0.00244141L31.2446 5.56583L31.2424 5.56806Z" fill="#2B164E"/>
<path d="M67.9582 31.6879C66.2439 30.7725 64.8974 29.4651 63.9166 27.7657C62.9357 26.0662 62.4453 24.0795 62.4453 21.8054C62.4453 19.5313 62.9424 17.5757 63.9367 15.8651C64.9309 14.1523 66.2907 12.8405 68.0183 11.9228C69.746 11.0074 71.6809 10.5508 73.8277 10.5508C75.9744 10.5508 77.9094 11.0096 79.637 11.9228C81.3646 12.8382 82.7245 14.1523 83.7187 15.8651C84.7129 17.5779 85.21 19.558 85.21 21.8054C85.21 24.0527 84.7062 26.035 83.6986 27.7478C82.691 29.4606 81.3178 30.7747 79.5768 31.6902C77.8358 32.6056 75.8941 33.0622 73.7474 33.0622C71.6007 33.0622 69.6724 32.6056 67.9582 31.6902V31.6879ZM77.0244 25.8457C77.9272 24.9036 78.3775 23.5583 78.3775 21.8054C78.3775 20.0525 77.9383 18.7072 77.0623 17.765C76.1862 16.8229 75.105 16.3529 73.8232 16.3529C72.5414 16.3529 71.429 16.8184 70.5641 17.745C69.7014 18.6738 69.2689 20.0258 69.2689 21.8031C69.2689 23.5805 69.6947 24.9013 70.544 25.8435C71.3934 26.7856 72.4612 27.2556 73.743 27.2556C75.0248 27.2556 76.1171 26.7856 77.0199 25.8435L77.0244 25.8457Z" fill="#2B164E"/>
<path d="M119.752 5.56806C119.099 5.72546 118.366 5.94744 117.554 6.23402C115.238 6.98017 113.08 7.52809 109.939 8.1161C109.899 10.0761 109.861 12.5863 109.821 13.4505H116.259C119.282 13.4505 120.773 13.3726 122.461 13.1765V19.609C120.851 19.4531 119.909 19.413 116.377 19.413H109.391C108.921 23.0213 108.174 25.4134 106.761 27.7276C105.309 30.0016 102.993 32.2757 100.245 34.0019C99.1055 34.748 98.3208 35.1779 96.4371 36.002C94.9458 33.3738 93.9248 32.0797 91.5707 30.1197C96.319 28.3935 98.7533 26.8656 100.441 24.5113C101.5 23.0992 102.01 21.7272 102.365 19.413H94.6315C91.0603 19.413 90.1574 19.4531 88.5078 19.609V13.1765C90.1574 13.4126 91.0982 13.4505 94.7496 13.4505H102.991C103.069 12.2745 103.069 11.5283 103.069 10.1563V9.05825C99.3396 9.45026 99.0275 9.45026 92.7076 9.72422C92.3153 7.52809 91.8449 6.11598 90.7058 3.76394C92.0411 3.84189 92.7455 3.84189 93.3363 3.84189C98.5571 3.84189 106.054 2.93983 110.528 1.80168C112.53 1.29163 113.981 0.743707 115.472 -0.00244141L119.75 5.56583L119.752 5.56806Z" fill="#2B164E"/>
<path d="M147.856 23.4111H132.666C132.771 24.7697 133.208 25.8099 133.982 26.5293C134.753 27.2487 135.703 27.6073 136.828 27.6073C138.503 27.6073 139.666 26.9012 140.322 25.4891H147.464C147.098 26.928 146.436 28.222 145.482 29.3713C144.526 30.5228 143.329 31.4249 141.891 32.0775C140.451 32.7323 138.841 33.0575 137.062 33.0575C134.916 33.0575 133.005 32.6009 131.331 31.6855C129.657 30.7701 128.348 29.4627 127.406 27.7632C126.463 26.0638 125.992 24.077 125.992 21.8029C125.992 19.5289 126.456 17.5421 127.385 15.8427C128.313 14.1432 129.617 12.8358 131.291 11.9204C132.965 11.0049 134.889 10.5483 137.06 10.5483C139.231 10.5483 141.064 10.9938 142.711 11.8825C144.359 12.7712 145.649 14.0385 146.577 15.6867C147.504 17.335 147.97 19.2549 147.97 21.451C147.97 22.0791 147.93 22.7317 147.852 23.4111H147.856ZM141.104 19.6848C141.104 18.5355 140.712 17.62 139.927 16.9385C139.142 16.2592 138.161 15.9184 136.982 15.9184C135.803 15.9184 134.909 16.2458 134.136 16.8984C133.364 17.5532 132.885 18.4798 132.702 19.6825H141.102L141.104 19.6848Z" fill="#2B164E"/>
<path d="M155.313 32.0797C153.821 31.4271 152.644 30.5295 151.779 29.3935C150.914 28.2576 150.431 26.9814 150.328 25.5693H156.962C157.04 26.3288 157.395 26.9413 158.021 27.4135C158.65 27.8834 159.421 28.1195 160.337 28.1195C161.173 28.1195 161.822 27.9569 162.279 27.6295C162.736 27.3021 162.966 26.8789 162.966 26.3555C162.966 25.7274 162.638 25.2641 161.985 24.9634C161.329 24.6627 160.27 24.3309 158.806 23.9634C157.236 23.5981 155.928 23.2128 154.88 22.8074C153.832 22.402 152.93 21.7628 152.172 20.8852C151.412 20.0099 151.033 18.8272 151.033 17.3371C151.033 16.0831 151.378 14.9383 152.074 13.9048C152.767 12.8714 153.788 12.0562 155.134 11.4548C156.481 10.8534 158.084 10.5527 159.943 10.5527C162.691 10.5527 164.856 11.2321 166.439 12.5929C168.021 13.9516 168.931 15.7557 169.167 18.0053H162.966C162.861 17.248 162.526 16.6467 161.965 16.2012C161.401 15.758 160.663 15.5352 159.747 15.5352C158.962 15.5352 158.36 15.6867 157.941 15.9851C157.522 16.2858 157.312 16.6979 157.312 17.2213C157.312 17.8494 157.647 18.3194 158.313 18.6334C158.98 18.9475 160.021 19.2615 161.434 19.5756C163.057 19.9943 164.379 20.4064 165.398 20.8117C166.419 21.2171 167.315 21.8697 168.086 22.7718C168.857 23.6738 169.256 24.8832 169.283 26.4C169.283 27.6807 168.922 28.8256 168.204 29.8323C167.484 30.8391 166.45 31.6298 165.103 32.2044C163.755 32.7791 162.192 33.0664 160.413 33.0664C158.503 33.0664 156.802 32.739 155.31 32.0864L155.313 32.0797Z" fill="#2B164E"/>
<path d="M200.92 9.37229C204.021 9.37229 205.002 9.3322 206.808 9.05824V15.9607C204.884 15.8048 203.943 15.7647 201.038 15.7647H194.09C193.698 20.9031 193.031 23.4912 191.343 26.4713C189.812 29.1374 187.692 31.4516 185.064 33.3337C183.925 34.1578 183.062 34.7057 181.06 35.8439C179.609 33.2958 178.47 32.0018 175.879 29.8435C180.472 27.9213 183.336 25.6472 185.142 22.5891C186.045 21.0211 186.593 19.4509 186.789 17.6467C186.841 17.2547 186.907 16.6274 186.985 15.7647H178.586C175.759 15.7647 174.856 15.8048 172.895 15.9607V9.05824C174.66 9.3322 175.447 9.37229 178.704 9.37229H187.34C187.34 9.00702 187.353 8.48434 187.38 7.80427V4.82413C187.38 3.2561 187.302 1.8039 187.144 0.667969H194.681C194.522 1.80612 194.522 1.92194 194.444 4.94218C194.418 5.93556 194.404 6.95492 194.404 8.00027C194.404 8.51032 194.364 8.98029 194.364 9.37229H200.918H200.92Z" fill="#2B164E"/>
<path d="M47.9712 33.0575C54.1923 33.0575 59.2355 28.0187 59.2355 21.8029C59.2355 15.5872 54.1923 10.5483 47.9712 10.5483C41.7502 10.5483 36.707 15.5872 36.707 21.8029C36.707 28.0187 41.7502 33.0575 47.9712 33.0575Z" fill="#F92830"/>
</g>
<defs>
<clipPath id="clip0_481_5654">
<rect width="206.809" height="36" fill="white"/>
</clipPath>
</defs>
</svg>
